<svg width="759" height="248" viewBox="0 0 759 248" fill="none" xmlns="http://www.w3.org/2000/svg">
<path d="M1 245H51.5991L32.4839 236.005L44.1514 180.908L72.9631 44.8525L105.776 180.908L119.065 236.005L102.198 245H157.295L138.18 236.005L76.3364 1L27.9862 236.005L1 245Z" fill="#4C55A3"/>
<path d="M44.1514 180.908L32.4839 236.005L51.5991 245H1L27.9862 236.005L76.3364 1L138.18 236.005L157.295 245H102.198L119.065 236.005L105.776 180.908M44.1514 180.908L72.9631 44.8525L105.776 180.908M44.1514 180.908H105.776" stroke="#4C55A3" stroke-width="5"/>
<path d="M231.507 245H182.032L195.525 237.129V15.6174L182.032 3.24878H234.88L215.765 15.6174V108.945L295.599 15.6174L277.608 3.24878H322.585L295.599 15.6174L215.765 108.945C239.753 109.694 287.728 122.438 287.728 167.415C287.728 223.636 292.226 234.88 314.714 245C300.097 243.876 269.737 233.756 265.24 202.272C259.618 162.917 279.857 141.553 215.765 108.945V237.129L231.507 245Z" fill="#4C55A3"/>
<path d="M349.572 245L366.438 232.631V20.1151L349.572 3.24878H388.364H427.157H456.392V60.5944C456.017 43.728 449.645 8.64602 427.157 3.24878H388.364V117.94H421.535C426.932 117.94 430.53 99.9492 431.654 90.9539V141.553C431.654 128.06 424.908 120.189 421.535 117.94H388.364V232.631V245H431.654C446.947 245 454.518 206.77 456.392 187.654V245H431.654H388.364H349.572Z" fill="#4C55A3"/>
<path d="M667.783 245H612.687L629.553 232.631V3.24878L581.241 141.553L572.207 167.415L502.814 15.6174V227.009L530.604 245H483.378L502.814 227.009V15.6174L500.244 9.99532L483.378 3.24878H523.857L581.241 141.553L629.553 3.24878H667.783L654.29 20.1151V232.631L667.783 245Z" fill="#4C55A3"/>
<path d="M749.866 245H703.765L715.009 232.631V15.6174L700.392 3.24878H750.991L735.249 15.6174V232.631L749.866 245Z" fill="#4C55A3"/>
<path d="M215.765 108.945V237.129L231.507 245H182.032L195.525 237.129V15.6174L182.032 3.24878H234.88L215.765 15.6174V108.945ZM215.765 108.945L295.599 15.6174M215.765 108.945C239.753 109.694 287.728 122.438 287.728 167.415C287.728 223.636 292.226 234.88 314.714 245C300.097 243.876 269.737 233.756 265.24 202.272C259.618 162.917 279.857 141.553 215.765 108.945ZM295.599 15.6174L277.608 3.24878H322.585L295.599 15.6174ZM427.157 3.24878H456.392V60.5944C456.017 43.728 449.645 8.64602 427.157 3.24878ZM427.157 3.24878H388.364M388.364 3.24878H349.572L366.438 20.1151V232.631L349.572 245H388.364M388.364 3.24878V117.94M388.364 245V232.631V117.94M388.364 245H431.654M431.654 245H456.392V187.654C454.518 206.77 446.947 245 431.654 245ZM388.364 117.94H421.535M421.535 117.94C424.908 120.189 431.654 128.06 431.654 141.553V90.9539C430.53 99.9493 426.932 117.94 421.535 117.94ZM629.553 3.24878V232.631L612.687 245H667.783L654.29 232.631V20.1151L667.783 3.24878H629.553ZM629.553 3.24878L581.241 141.553M581.241 141.553L572.207 167.415L502.814 15.6174M581.241 141.553L523.857 3.24878H483.378L500.244 9.99532L502.814 15.6174M502.814 15.6174V227.009M502.814 227.009L530.604 245H483.378L502.814 227.009ZM703.765 245H749.866L735.249 232.631V15.6174L750.991 3.24878H700.392L715.009 15.6174V232.631L703.765 245Z" stroke="#4C55A3" stroke-width="5"/>
</svg>
